<svg xmlns="http://www.w3.org/2000/svg" version="1.1" xmlns:xlink="http://www.w3.org/1999/xlink" xmlns:svgjs="http://svgjs.dev/svgjs" width="180" height="300" preserveAspectRatio="none" viewBox="0 0 180 300"><g mask="url(&quot;#SvgjsMask1077&quot;)" fill="none"><path d="M177.72 94.41L181.62 94.41L181.62 100.69L177.72 100.69z" fill="rgba(235, 68, 90, 0.1)"></path><path d="M114.63 39.74 a0.1 0.1 0 1 0 0.2 0 a0.1 0.1 0 1 0 -0.2 0z" stroke="rgba(45, 211, 111, 0.1)"></path><path d="M30.7 48.58L43.56 48.58L43.56 61.44L30.7 61.44z" stroke="rgba(45, 211, 111, 0.1)"></path><path d="M177.95 238.65L181.13 238.65L181.13 241.83L177.95 241.83z" stroke="rgba(45, 211, 111, 0.1)"></path><path d="M130.63 243.44L136.82 243.44L136.82 247.29L130.63 247.29z" stroke="rgba(191, 129, 28, 0.1)"></path><path d="M60.59 285.92L77.48 285.92L77.48 302.81L60.59 302.81z" stroke="rgba(45, 211, 111, 0.1)"></path><path d="M48.82 188.63L63.76 188.63L63.76 195.55L48.82 195.55z" fill="rgba(45, 211, 111, 0.1)"></path><path d="M166.65 276.45L179.91 276.45L179.91 289.71L166.65 289.71z" stroke="rgba(191, 129, 28, 0.1)"></path><path d="M74.51 168.25a17.5 17.5 0 1 0 30.92 16.42z" stroke="rgba(61, 194, 255, 0.1)"></path><path d="M52.46 173.17L52.69 173.17L52.69 174.75L52.46 174.75z" fill="rgba(191, 129, 28, 0.1)"></path><path d="M83.4 71.22L85.25 71.22L85.25 73.07L83.4 73.07z" stroke="rgba(61, 194, 255, 0.1)"></path><path d="M94.03 34.03 a0.06 0.06 0 1 0 0.12 0 a0.06 0.06 0 1 0 -0.12 0z" fill="rgba(235, 68, 90, 0.1)"></path><path d="M169.97 176.08L187.13 176.08L187.13 193.49L169.97 193.49z" stroke="rgba(45, 211, 111, 0.1)"></path><path d="M111.27 19.27 a1.92 1.92 0 1 0 3.84 0 a1.92 1.92 0 1 0 -3.84 0z" fill="rgba(45, 211, 111, 0.1)"></path><path d="M169.29 32.83a7.41 7.41 0 1 0 13.28-6.59z" stroke="rgba(61, 194, 255, 0.1)"></path><path d="M23.29 291.24L35.74 291.24L35.74 304.81L23.29 304.81z" fill="rgba(191, 129, 28, 0.1)"></path><path d="M41.5 40.61L53.01 40.61L53.01 56.98L41.5 56.98z" fill="rgba(191, 129, 28, 0.1)"></path><path d="M121.15 40.95L128.33 40.95L128.33 56.41L121.15 56.41z" stroke="rgba(45, 211, 111, 0.1)"></path><path d="M21.35 24.22 a16.41 16.41 0 1 0 32.82 0 a16.41 16.41 0 1 0 -32.82 0z" fill="rgba(61, 194, 255, 0.1)"></path><path d="M144.9 165.74L159.56 165.74L159.56 180.4L144.9 180.4z" fill="rgba(191, 129, 28, 0.1)"></path><path d="M95.16 167.94L100.46 167.94L100.46 173.73L95.16 173.73z" stroke="rgba(45, 211, 111, 0.1)"></path></g><defs><mask id="SvgjsMask1077"><rect width="180" height="300" fill="#ffffff"></rect></mask></defs></svg>