<svg xmlns="http://www.w3.org/2000/svg" version="1.1" xmlns:xlink="http://www.w3.org/1999/xlink" xmlns:svgjs="http://svgjs.dev/svgjs" width="180" height="300" preserveAspectRatio="none" viewBox="0 0 180 300">
    <g mask="url(&quot;#SvgjsMask1066&quot;)" fill="none">
        <path d="M165.92 111.68L183.29 111.68L183.29 115.76L165.92 115.76z" stroke="rgba(45, 211, 111, 0.2)"></path>
        <path d="M148.69 171.2 a11.09 11.09 0 1 0 22.18 0 a11.09 11.09 0 1 0 -22.18 0z" stroke="rgba(235, 68, 90, 0.2)"></path>
        <path d="M137.16 203.96L154.35 203.96L154.35 221.15L137.16 221.15z" stroke="rgba(191, 129, 28, 0.2)"></path>
        <path d="M77.25 170.26 a6.61 6.61 0 1 0 13.22 0 a6.61 6.61 0 1 0 -13.22 0z" fill="rgba(61, 194, 255, 0.2)"></path>
        <path d="M89.93 89.38L95.92 89.38L95.92 90.44L89.93 90.44z" fill="rgba(191, 129, 28, 0.2)"></path>
        <path d="M50.3 0.95 a7.54 7.54 0 1 0 15.08 0 a7.54 7.54 0 1 0 -15.08 0z" fill="rgba(45, 211, 111, 0.2)"></path>
        <path d="M5.79 241.07 a7.12 7.12 0 1 0 14.24 0 a7.12 7.12 0 1 0 -14.24 0z" fill="rgba(61, 194, 255, 0.2)"></path>
        <path d="M19.53 168.15L22.5 168.15L22.5 184.84L19.53 184.84z" stroke="rgba(191, 129, 28, 0.2)"></path>
        <path d="M53.09 280.06 a11.19 11.19 0 1 0 22.38 0 a11.19 11.19 0 1 0 -22.38 0z" fill="rgba(45, 211, 111, 0.2)"></path>
        <path d="M113.88 187.57L114.07 187.57L114.07 205.23L113.88 205.23z" fill="rgba(191, 129, 28, 0.2)"></path>
        <path d="M90.94 53.93a5.76 5.76 0 1 0 11.5-0.64z" fill="rgba(191, 129, 28, 0.2)"></path>
        <path d="M7.23 168.15a2.09 2.09 0 1 0 0.98-4.06z" stroke="rgba(191, 129, 28, 0.2)"></path>
        <path d="M39.71 263.69L49.76 263.69L49.76 273.74L39.71 273.74z" fill="rgba(191, 129, 28, 0.2)"></path>
        <path d="M115.71 206.48a15.32 15.32 0 1 0-9.49 29.13z" stroke="rgba(235, 68, 90, 0.2)"></path>
        <path d="M8.35 251.54L11.01 251.54L11.01 254.2L8.35 254.2z" fill="rgba(45, 211, 111, 0.2)"></path>
        <path d="M4.48 139.28L12.51 139.28L12.51 147.31L4.48 147.31z" stroke="rgba(191, 129, 28, 0.2)"></path>
        <path d="M42.9 114.47 a7.75 7.75 0 1 0 15.5 0 a7.75 7.75 0 1 0 -15.5 0z" fill="rgba(45, 211, 111, 0.2)"></path>
        <path d="M18.35 251.41L33.86 251.41L33.86 251.45L18.35 251.45z" stroke="rgba(61, 194, 255, 0.2)"></path>
        <path d="M65.78 49.99L82.62 49.99L82.62 55.06L65.78 55.06z" fill="rgba(45, 211, 111, 0.2)"></path>
        <path d="M63.95 88.17 a4.34 4.34 0 1 0 8.68 0 a4.34 4.34 0 1 0 -8.68 0z" stroke="rgba(45, 211, 111, 0.2)"></path>
        <path d="M56.53 178.92L58.05 178.92L58.05 190.9L56.53 190.9z" fill="rgba(191, 129, 28, 0.2)"></path>
    </g>
    <defs>
        <mask id="SvgjsMask1066">
            <rect width="180" height="300" fill="#ffffff"></rect>
        </mask>
    </defs>
</svg>