<svg xmlns="http://www.w3.org/2000/svg" version="1.1" xmlns:xlink="http://www.w3.org/1999/xlink" xmlns:svgjs="http://svgjs.dev/svgjs" width="180" height="300" preserveAspectRatio="none" viewBox="0 0 180 300"><g mask="url(&quot;#SvgjsMask1076&quot;)" fill="none"><path d="M156.65 85.35L167.93 85.35L167.93 88.87L156.65 88.87z" fill="rgba(61, 194, 255, 0.1)"></path><path d="M159.93 253.58L175.64 253.58L175.64 269.29L159.93 269.29z" stroke="rgba(45, 211, 111, 0.1)"></path><path d="M36.02 83.62a12.41 12.41 0 1 0-0.77 24.81z" stroke="rgba(45, 211, 111, 0.1)"></path><path d="M94.92 186.33L102.61 186.33L102.61 200.5L94.92 200.5z" stroke="rgba(191, 129, 28, 0.1)"></path><path d="M46.62 23.27L52.5 23.27L52.5 23.45L46.62 23.45z" fill="rgba(235, 68, 90, 0.1)"></path><path d="M161.87 69.86 a15.08 15.08 0 1 0 30.16 0 a15.08 15.08 0 1 0 -30.16 0z" stroke="rgba(45, 211, 111, 0.1)"></path><path d="M160.9 177.34L176.97 177.34L176.97 179.99L160.9 179.99z" fill="rgba(45, 211, 111, 0.1)"></path><path d="M-0.19 6.48 a13.74 13.74 0 1 0 27.48 0 a13.74 13.74 0 1 0 -27.48 0z" stroke="rgba(235, 68, 90, 0.1)"></path><path d="M11.5 52.27a1.79 1.79 0 1 0-2.85-2.16z" fill="rgba(235, 68, 90, 0.1)"></path><path d="M84.79 97.39L99.04 97.39L99.04 111.64L84.79 111.64z" fill="rgba(191, 129, 28, 0.1)"></path><path d="M48.56 84.4a14.61 14.61 0 1 0 29.22 0.04z" stroke="rgba(191, 129, 28, 0.1)"></path><path d="M81.69 195.99L93.13 195.99L93.13 207.43L81.69 207.43z" stroke="rgba(61, 194, 255, 0.1)"></path><path d="M53.91 3.72 a14.7 14.7 0 1 0 29.4 0 a14.7 14.7 0 1 0 -29.4 0z" fill="rgba(235, 68, 90, 0.1)"></path><path d="M29.5 27.59L36.67 27.59L36.67 28.86L29.5 28.86z" stroke="rgba(191, 129, 28, 0.1)"></path><path d="M48.97 152.73L57.43 152.73L57.43 156.77L48.97 156.77z" stroke="rgba(191, 129, 28, 0.1)"></path><path d="M155.43 292.52L172.72 292.52L172.72 309.81L155.43 309.81z" fill="rgba(61, 194, 255, 0.1)"></path><path d="M110.22 47.08a4.24 4.24 0 1 0 5.29-6.62z" stroke="rgba(45, 211, 111, 0.1)"></path><path d="M158.76 268.43a14.15 14.15 0 1 0-20.41 19.6z" stroke="rgba(61, 194, 255, 0.1)"></path><path d="M104.09 166.64L118.41 166.64L118.41 180.96L104.09 180.96z" stroke="rgba(235, 68, 90, 0.1)"></path><path d="M14.67 21.8L25.85 21.8L25.85 34.79L14.67 34.79z" stroke="rgba(45, 211, 111, 0.1)"></path><path d="M76.91 130.33L78.17 130.33L78.17 140.66L76.91 140.66z" stroke="rgba(235, 68, 90, 0.1)"></path></g><defs><mask id="SvgjsMask1076"><rect width="180" height="300" fill="#ffffff"></rect></mask></defs></svg>