<svg xmlns="http://www.w3.org/2000/svg" version="1.1" xmlns:xlink="http://www.w3.org/1999/xlink" xmlns:svgjs="http://svgjs.dev/svgjs" width="180" height="300" preserveAspectRatio="none" viewBox="0 0 180 300"><g mask="url(&quot;#SvgjsMask1080&quot;)" fill="none"><path d="M114.27 174.42a0.79 0.79 0 1 0 0.73 1.4z" fill="rgba(45, 211, 111, 0.1)"></path><path d="M76.48 83.93L92.99 83.93L92.99 88.02L76.48 88.02z" fill="rgba(235, 68, 90, 0.1)"></path><path d="M134.46 122.02 a5.38 5.38 0 1 0 10.76 0 a5.38 5.38 0 1 0 -10.76 0z" fill="rgba(235, 68, 90, 0.1)"></path><path d="M147.69 271.6L164.98 271.6L164.98 288.89L147.69 288.89z" fill="rgba(191, 129, 28, 0.1)"></path><path d="M126.42 190.02L133.86 190.02L133.86 197.46L126.42 197.46z" fill="rgba(61, 194, 255, 0.1)"></path><path d="M73.87 94.81 a0.83 0.83 0 1 0 1.66 0 a0.83 0.83 0 1 0 -1.66 0z" fill="rgba(191, 129, 28, 0.1)"></path><path d="M123.85 195.31L140.98 195.31L140.98 199.41L123.85 199.41z" fill="rgba(235, 68, 90, 0.1)"></path><path d="M88.94 17.75 a10.35 10.35 0 1 0 20.7 0 a10.35 10.35 0 1 0 -20.7 0z" fill="rgba(235, 68, 90, 0.1)"></path><path d="M113.57 228.25 a2.79 2.79 0 1 0 5.58 0 a2.79 2.79 0 1 0 -5.58 0z" stroke="rgba(61, 194, 255, 0.1)"></path><path d="M78.81 182.39 a6.15 6.15 0 1 0 12.3 0 a6.15 6.15 0 1 0 -12.3 0z" stroke="rgba(61, 194, 255, 0.1)"></path><path d="M29.39 68.96 a4.8 4.8 0 1 0 9.6 0 a4.8 4.8 0 1 0 -9.6 0z" fill="rgba(61, 194, 255, 0.1)"></path><path d="M35.65 237.3a0.48 0.48 0 1 0-0.15 0.94z" stroke="rgba(61, 194, 255, 0.1)"></path><path d="M92.11 106.82a3.23 3.23 0 1 0-6.33-1.29z" stroke="rgba(235, 68, 90, 0.1)"></path><path d="M26.83 84.72 a11.82 11.82 0 1 0 23.64 0 a11.82 11.82 0 1 0 -23.64 0z" fill="rgba(61, 194, 255, 0.1)"></path><path d="M17.58 61.35L21.89 61.35L21.89 65.66L17.58 65.66z" fill="rgba(235, 68, 90, 0.1)"></path><path d="M9.27 84.14L15.08 84.14L15.08 89.95L9.27 89.95z" fill="rgba(191, 129, 28, 0.1)"></path><path d="M138.87 88.09 a17.29 17.29 0 1 0 34.58 0 a17.29 17.29 0 1 0 -34.58 0z" stroke="rgba(61, 194, 255, 0.1)"></path><path d="M69.67 107.7L80.86 107.7L80.86 118.08L69.67 118.08z" fill="rgba(191, 129, 28, 0.1)"></path><path d="M161.76 260.42 a2.65 2.65 0 1 0 5.3 0 a2.65 2.65 0 1 0 -5.3 0z" stroke="rgba(191, 129, 28, 0.1)"></path><path d="M24.38 225.72L41.75 225.72L41.75 243.09L24.38 243.09z" fill="rgba(61, 194, 255, 0.1)"></path><path d="M61 44.19L78.6 44.19L78.6 61.06L61 61.06z" fill="rgba(191, 129, 28, 0.1)"></path></g><defs><mask id="SvgjsMask1080"><rect width="180" height="300" fill="#ffffff"></rect></mask></defs></svg>