<svg xmlns="http://www.w3.org/2000/svg" version="1.1" xmlns:xlink="http://www.w3.org/1999/xlink" xmlns:svgjs="http://svgjs.dev/svgjs" width="180" height="300" preserveAspectRatio="none" viewBox="0 0 180 300"><g mask="url(&quot;#SvgjsMask1082&quot;)" fill="none"><path d="M51.2 5.41L55.41 5.41L55.41 9.62L51.2 9.62z" fill="rgba(45, 211, 111, 0.1)"></path><path d="M141.79 100.5a5.49 5.49 0 1 0 2.42-10.71z" stroke="rgba(45, 211, 111, 0.1)"></path><path d="M14.06 30.34 a12.94 12.94 0 1 0 25.88 0 a12.94 12.94 0 1 0 -25.88 0z" fill="rgba(191, 129, 28, 0.1)"></path><path d="M56.8 39.09 a10.16 10.16 0 1 0 20.32 0 a10.16 10.16 0 1 0 -20.32 0z" stroke="rgba(61, 194, 255, 0.1)"></path><path d="M160.56 37.4a1.95 1.95 0 1 0-1.37 3.65z" stroke="rgba(191, 129, 28, 0.1)"></path><path d="M58.27 65.39L64.14 65.39L64.14 71.26L58.27 71.26z" fill="rgba(61, 194, 255, 0.1)"></path><path d="M89.42 14.48L103.82 14.48L103.82 27.57L89.42 27.57z" stroke="rgba(235, 68, 90, 0.1)"></path><path d="M101.95 210.21L106.29 210.21L106.29 225.55L101.95 225.55z" fill="rgba(61, 194, 255, 0.1)"></path><path d="M77.12 41.86L79.97 41.86L79.97 50.7L77.12 50.7z" stroke="rgba(191, 129, 28, 0.1)"></path><path d="M16.97 9.28L21.49 9.28L21.49 13.8L16.97 13.8z" stroke="rgba(61, 194, 255, 0.1)"></path><path d="M176.37 232.33L182.02 232.33L182.02 236.42L176.37 236.42z" fill="rgba(191, 129, 28, 0.1)"></path><path d="M66.27 91.09L78.41 91.09L78.41 103.23L66.27 103.23z" stroke="rgba(45, 211, 111, 0.1)"></path><path d="M137.91 127.9L142.39 127.9L142.39 132.38L137.91 132.38z" fill="rgba(191, 129, 28, 0.1)"></path><path d="M12.29 141.15L27.22 141.15L27.22 143.06L12.29 143.06z" stroke="rgba(45, 211, 111, 0.1)"></path><path d="M38.89 64.02L53.9 64.02L53.9 79.03L38.89 79.03z" fill="rgba(61, 194, 255, 0.1)"></path><path d="M139 87.42 a7.11 7.11 0 1 0 14.22 0 a7.11 7.11 0 1 0 -14.22 0z" fill="rgba(45, 211, 111, 0.1)"></path><path d="M61.39 30.04 a3.06 3.06 0 1 0 6.12 0 a3.06 3.06 0 1 0 -6.12 0z" fill="rgba(61, 194, 255, 0.1)"></path><path d="M59.77 79.07L67.06 79.07L67.06 86.36L59.77 86.36z" stroke="rgba(45, 211, 111, 0.1)"></path><path d="M33.8 96.21a1.47 1.47 0 1 0 0.62 2.87z" stroke="rgba(235, 68, 90, 0.1)"></path><path d="M92.92 216.72a1.62 1.62 0 1 0 2.8 1.64z" fill="rgba(45, 211, 111, 0.1)"></path><path d="M75.68 267.99L83.7 267.99L83.7 276.01L75.68 276.01z" fill="rgba(235, 68, 90, 0.1)"></path></g><defs><mask id="SvgjsMask1082"><rect width="180" height="300" fill="#ffffff"></rect></mask></defs></svg>