<svg xmlns="http://www.w3.org/2000/svg" version="1.1" xmlns:xlink="http://www.w3.org/1999/xlink" xmlns:svgjs="http://svgjs.dev/svgjs" width="180" height="300" preserveAspectRatio="none" viewBox="0 0 180 300"><g mask="url(&quot;#SvgjsMask1083&quot;)" fill="none"><path d="M66.45 245.02L68.66 245.02L68.66 247.23L66.45 247.23z" fill="rgba(235, 68, 90, 0.1)"></path><path d="M43.06 41.24 a7.82 7.82 0 1 0 15.64 0 a7.82 7.82 0 1 0 -15.64 0z" fill="rgba(235, 68, 90, 0.1)"></path><path d="M40.58 250.52 a1.37 1.37 0 1 0 2.74 0 a1.37 1.37 0 1 0 -2.74 0z" fill="rgba(45, 211, 111, 0.1)"></path><path d="M108.79 58.87a16.91 16.91 0 1 0 10.94-32z" fill="rgba(235, 68, 90, 0.1)"></path><path d="M28 231.93L29.67 231.93L29.67 233.6L28 233.6z" stroke="rgba(235, 68, 90, 0.1)"></path><path d="M151.23 257.87L159.07 257.87L159.07 265.71L151.23 265.71z" stroke="rgba(191, 129, 28, 0.1)"></path><path d="M145.87 69.59L151.96 69.59L151.96 75.68L145.87 75.68z" fill="rgba(45, 211, 111, 0.1)"></path><path d="M62.12 27.93 a11.62 11.62 0 1 0 23.24 0 a11.62 11.62 0 1 0 -23.24 0z" fill="rgba(45, 211, 111, 0.1)"></path><path d="M36.66 237.09 a5.08 5.08 0 1 0 10.16 0 a5.08 5.08 0 1 0 -10.16 0z" fill="rgba(61, 194, 255, 0.1)"></path><path d="M90.83 76.35L96.67 76.35L96.67 80.68L90.83 80.68z" fill="rgba(191, 129, 28, 0.1)"></path><path d="M111.94 246.4a3.26 3.26 0 1 0 6.5-0.52z" stroke="rgba(191, 129, 28, 0.1)"></path><path d="M161.41 167.14L172.64 167.14L172.64 178.37L161.41 178.37z" fill="rgba(235, 68, 90, 0.1)"></path><path d="M124.58 181.25a7.67 7.67 0 1 0-12.12 9.4z" fill="rgba(61, 194, 255, 0.1)"></path><path d="M32.86 109.43a1.06 1.06 0 1 0 0.95-1.89z" stroke="rgba(61, 194, 255, 0.1)"></path><path d="M177.33 192.45L178.77 192.45L178.77 194.91L177.33 194.91z" fill="rgba(235, 68, 90, 0.1)"></path><path d="M12.39 137.2a5.42 5.42 0 1 0-9.03 5.99z" fill="rgba(45, 211, 111, 0.1)"></path><path d="M84.23 67.57L84.58 67.57L84.58 67.92L84.23 67.92z" fill="rgba(45, 211, 111, 0.1)"></path><path d="M135.63 166.32a3.52 3.52 0 1 0-2.45-6.6z" fill="rgba(61, 194, 255, 0.1)"></path><path d="M154.64 123.4L166.75 123.4L166.75 132L154.64 132z" fill="rgba(191, 129, 28, 0.1)"></path><path d="M173.72 205.93L183.44 205.93L183.44 207.11L173.72 207.11z" fill="rgba(191, 129, 28, 0.1)"></path><path d="M46.8-7.05a13.66 13.66 0 1 0-20.25 18.34z" fill="rgba(45, 211, 111, 0.1)"></path></g><defs><mask id="SvgjsMask1083"><rect width="180" height="300" fill="#ffffff"></rect></mask></defs></svg>