<svg width="44" height="44" viewBox="0 0 44 44" fill="none" xmlns="http://www.w3.org/2000/svg">
<path d="M31.4499 6.60844V3.63128C31.4499 2.84882 30.801 2.19995 30.0186 2.19995C29.2361 2.19995 28.5872 2.84882 28.5872 3.63128V6.49393H16.1824V3.63128C16.1824 2.84882 15.5336 2.19995 14.7511 2.19995C13.9686 2.19995 13.3198 2.84882 13.3198 3.63128V6.60844C8.16698 7.08555 5.66694 10.1581 5.28525 14.7193C5.24708 15.2728 5.70511 15.7307 6.23946 15.7307H38.5303C39.0837 15.7307 39.5417 15.2537 39.4844 14.7193C39.1027 10.1581 36.6027 7.08555 31.4499 6.60844Z" fill="#627DF4"/>
<path d="M37.6523 18.5934H7.1173C6.06767 18.5934 5.20886 19.4522 5.20886 20.5018V32.2578C5.20886 37.9831 8.07152 41.8 14.7511 41.8H30.0185C36.6981 41.8 39.5607 37.9831 39.5607 32.2578V20.5018C39.5607 19.4522 38.7019 18.5934 37.6523 18.5934ZM17.0602 34.5669C16.9648 34.6433 16.8695 34.7387 16.774 34.7959C16.6595 34.8723 16.545 34.9296 16.4305 34.9678C16.3159 35.025 16.2014 35.0631 16.0869 35.0823C15.9534 35.1013 15.8389 35.1204 15.7052 35.1204C15.4572 35.1204 15.2091 35.0631 14.9801 34.9678C14.7319 34.8723 14.5411 34.7387 14.3502 34.5669C14.0067 34.2044 13.7968 33.7082 13.7968 33.2119C13.7968 32.7158 14.0067 32.2196 14.3502 31.857C14.5411 31.6853 14.7319 31.5516 14.9801 31.4562C15.3235 31.3036 15.7052 31.2654 16.0869 31.3417C16.2014 31.3608 16.3159 31.3989 16.4305 31.4562C16.545 31.4944 16.6595 31.5516 16.774 31.6279C16.8695 31.7043 16.9648 31.7806 17.0602 31.857C17.4037 32.2196 17.6137 32.7158 17.6137 33.2119C17.6137 33.7082 17.4037 34.2044 17.0602 34.5669ZM17.0602 27.8874C16.6976 28.2309 16.2014 28.4409 15.7052 28.4409C15.2091 28.4409 14.7129 28.2309 14.3502 27.8874C14.0067 27.5248 13.7968 27.0286 13.7968 26.5324C13.7968 26.0363 14.0067 25.5401 14.3502 25.1774C14.8846 24.6431 15.7244 24.4713 16.4305 24.7767C16.6786 24.8721 16.8885 25.0057 17.0602 25.1774C17.4037 25.5401 17.6137 26.0363 17.6137 26.5324C17.6137 27.0286 17.4037 27.5248 17.0602 27.8874ZM23.7397 34.5669C23.3772 34.9105 22.881 35.1204 22.3848 35.1204C21.8887 35.1204 21.3924 34.9105 21.0298 34.5669C20.6862 34.2044 20.4764 33.7082 20.4764 33.2119C20.4764 32.7158 20.6862 32.2196 21.0298 31.857C21.736 31.1509 23.0336 31.1509 23.7397 31.857C24.0833 32.2196 24.2933 32.7158 24.2933 33.2119C24.2933 33.7082 24.0833 34.2044 23.7397 34.5669ZM23.7397 27.8874C23.6444 27.9637 23.549 28.0401 23.4535 28.1164C23.339 28.1928 23.2245 28.2501 23.11 28.2882C22.9955 28.3454 22.881 28.3836 22.7665 28.4027C22.6329 28.4218 22.5184 28.4409 22.3848 28.4409C21.8887 28.4409 21.3924 28.2309 21.0298 27.8874C20.6862 27.5248 20.4764 27.0286 20.4764 26.5324C20.4764 26.0363 20.6862 25.5401 21.0298 25.1774C21.2016 25.0057 21.4115 24.8721 21.6596 24.7767C22.3657 24.4713 23.2055 24.6431 23.7397 25.1774C24.0833 25.5401 24.2933 26.0363 24.2933 26.5324C24.2933 27.0286 24.0833 27.5248 23.7397 27.8874ZM30.4193 34.5669C30.0567 34.9105 29.5605 35.1204 29.0643 35.1204C28.5681 35.1204 28.072 34.9105 27.7093 34.5669C27.3658 34.2044 27.1559 33.7082 27.1559 33.2119C27.1559 32.7158 27.3658 32.2196 27.7093 31.857C28.4155 31.1509 29.7132 31.1509 30.4193 31.857C30.7628 32.2196 30.9728 32.7158 30.9728 33.2119C30.9728 33.7082 30.7628 34.2044 30.4193 34.5669ZM30.4193 27.8874C30.3239 27.9637 30.2284 28.0401 30.133 28.1164C30.0185 28.1928 29.904 28.2501 29.7895 28.2882C29.675 28.3454 29.5605 28.3836 29.446 28.4027C29.3124 28.4218 29.1788 28.4409 29.0643 28.4409C28.5681 28.4409 28.072 28.2309 27.7093 27.8874C27.3658 27.5248 27.1559 27.0286 27.1559 26.5324C27.1559 26.0363 27.3658 25.5401 27.7093 25.1774C27.9002 25.0057 28.091 24.8721 28.3392 24.7767C28.6826 24.624 29.0643 24.5859 29.446 24.6622C29.5605 24.6812 29.675 24.7194 29.7895 24.7767C29.904 24.8149 30.0185 24.8721 30.133 24.9484C30.2284 25.0248 30.3239 25.1011 30.4193 25.1774C30.7628 25.5401 30.9728 26.0363 30.9728 26.5324C30.9728 27.0286 30.7628 27.5248 30.4193 27.8874Z" fill="#A8B9FF"/>
</svg>
