<svg xmlns="http://www.w3.org/2000/svg" version="1.1" xmlns:xlink="http://www.w3.org/1999/xlink" xmlns:svgjs="http://svgjs.dev/svgjs" width="180" height="300" preserveAspectRatio="none" viewBox="0 0 180 300"><g mask="url(&quot;#SvgjsMask1084&quot;)" fill="none"><path d="M82.55 292.66L94.97 292.66L94.97 308.44L82.55 308.44z" fill="rgba(235, 68, 90, 0.1)"></path><path d="M79.91 120.74 a0.5 0.5 0 1 0 1 0 a0.5 0.5 0 1 0 -1 0z" fill="rgba(61, 194, 255, 0.1)"></path><path d="M72.24 238.34 a6.83 6.83 0 1 0 13.66 0 a6.83 6.83 0 1 0 -13.66 0z" stroke="rgba(191, 129, 28, 0.1)"></path><path d="M166.66 242.55L182.93 242.55L182.93 250.63L166.66 250.63z" fill="rgba(235, 68, 90, 0.1)"></path><path d="M124.47 163.04 a4.81 4.81 0 1 0 9.62 0 a4.81 4.81 0 1 0 -9.62 0z" fill="rgba(191, 129, 28, 0.1)"></path><path d="M43.85 170.01 a16.15 16.15 0 1 0 32.3 0 a16.15 16.15 0 1 0 -32.3 0z" stroke="rgba(45, 211, 111, 0.1)"></path><path d="M106.4 60.21L111.72 60.21L111.72 65.53L106.4 65.53z" stroke="rgba(191, 129, 28, 0.1)"></path><path d="M82.94 201.25a7.71 7.71 0 1 0 12.18-9.45z" stroke="rgba(191, 129, 28, 0.1)"></path><path d="M59.19 88.94 a9.78 9.78 0 1 0 19.56 0 a9.78 9.78 0 1 0 -19.56 0z" fill="rgba(61, 194, 255, 0.1)"></path><path d="M48.74 265.16a7.05 7.05 0 1 0 11.35-8.36z" stroke="rgba(235, 68, 90, 0.1)"></path><path d="M136.37 130.78L148.44 130.78L148.44 137.65L136.37 137.65z" fill="rgba(191, 129, 28, 0.1)"></path><path d="M16.86 250.6L18.75 250.6L18.75 263.12L16.86 263.12z" stroke="rgba(61, 194, 255, 0.1)"></path><path d="M11.99 122.78 a9.2 9.2 0 1 0 18.4 0 a9.2 9.2 0 1 0 -18.4 0z" fill="rgba(45, 211, 111, 0.1)"></path><path d="M133.54 248.61 a15.77 15.77 0 1 0 31.54 0 a15.77 15.77 0 1 0 -31.54 0z" fill="rgba(235, 68, 90, 0.1)"></path><path d="M9.8 181.7 a12.07 12.07 0 1 0 24.14 0 a12.07 12.07 0 1 0 -24.14 0z" stroke="rgba(45, 211, 111, 0.1)"></path><path d="M143.68 223.02a10.68 10.68 0 1 0-5.8 20.56z" stroke="rgba(45, 211, 111, 0.1)"></path><path d="M91.84 169.88 a9.94 9.94 0 1 0 19.88 0 a9.94 9.94 0 1 0 -19.88 0z" fill="rgba(61, 194, 255, 0.1)"></path><path d="M115.83 138.71L126.4 138.71L126.4 152.41L115.83 152.41z" fill="rgba(235, 68, 90, 0.1)"></path><path d="M131.55 65.01L134.35 65.01L134.35 81.54L131.55 81.54z" stroke="rgba(235, 68, 90, 0.1)"></path><path d="M78.28 165.7L85.83 165.7L85.83 173.25L78.28 173.25z" fill="rgba(235, 68, 90, 0.1)"></path><path d="M80.83 35.36L96.18 35.36L96.18 50.71L80.83 50.71z" stroke="rgba(45, 211, 111, 0.1)"></path></g><defs><mask id="SvgjsMask1084"><rect width="180" height="300" fill="#ffffff"></rect></mask></defs></svg>