<svg xmlns="http://www.w3.org/2000/svg" version="1.1" xmlns:xlink="http://www.w3.org/1999/xlink" xmlns:svgjs="http://svgjs.dev/svgjs" width="180" height="300" preserveAspectRatio="none" viewBox="0 0 180 300"><g mask="url(&quot;#SvgjsMask1078&quot;)" fill="none"><path d="M152.67 61.08L157.79 61.08L157.79 66.2L152.67 66.2z" stroke="rgba(235, 68, 90, 0.1)"></path><path d="M95.31 230.8L110.06 230.8L110.06 247.72L95.31 247.72z" stroke="rgba(191, 129, 28, 0.1)"></path><path d="M1.89 178.8 a9.51 9.51 0 1 0 19.02 0 a9.51 9.51 0 1 0 -19.02 0z" stroke="rgba(45, 211, 111, 0.1)"></path><path d="M100.68 149.11L102.3 149.11L102.3 150.73L100.68 150.73z" fill="rgba(191, 129, 28, 0.1)"></path><path d="M103.25 208.87 a13.05 13.05 0 1 0 26.1 0 a13.05 13.05 0 1 0 -26.1 0z" fill="rgba(61, 194, 255, 0.1)"></path><path d="M166.49 283.45 a6.25 6.25 0 1 0 12.5 0 a6.25 6.25 0 1 0 -12.5 0z" fill="rgba(191, 129, 28, 0.1)"></path><path d="M23.93 235.08a6.21 6.21 0 1 0 10.08 7.25z" fill="rgba(61, 194, 255, 0.1)"></path><path d="M40.47 13.65L43.2 13.65L43.2 16.38L40.47 16.38z" fill="rgba(45, 211, 111, 0.1)"></path><path d="M104.54 42.81L122.14 42.81L122.14 60.41L104.54 60.41z" stroke="rgba(235, 68, 90, 0.1)"></path><path d="M0.61 85.95L1.47 85.95L1.47 86.81L0.61 86.81z" fill="rgba(235, 68, 90, 0.1)"></path><path d="M118.22 205.25L127.67 205.25L127.67 218.25L118.22 218.25z" stroke="rgba(235, 68, 90, 0.1)"></path><path d="M20.21 214.98L29.42 214.98L29.42 221.94L20.21 221.94z" fill="rgba(191, 129, 28, 0.1)"></path><path d="M50.33 149.67 a3.04 3.04 0 1 0 6.08 0 a3.04 3.04 0 1 0 -6.08 0z" fill="rgba(45, 211, 111, 0.1)"></path><path d="M126.69 285.6L133.33 285.6L133.33 292.24L126.69 292.24z" stroke="rgba(191, 129, 28, 0.1)"></path><path d="M119.16 188.7L132.32 188.7L132.32 201.86L119.16 201.86z" fill="rgba(191, 129, 28, 0.1)"></path><path d="M133.55 62.69 a3.43 3.43 0 1 0 6.86 0 a3.43 3.43 0 1 0 -6.86 0z" stroke="rgba(235, 68, 90, 0.1)"></path><path d="M138.27 235.94L143.97 235.94L143.97 236.57L138.27 236.57z" stroke="rgba(61, 194, 255, 0.1)"></path><path d="M138.31 159.99L151.37 159.99L151.37 173.05L138.31 173.05z" fill="rgba(61, 194, 255, 0.1)"></path><path d="M141.21 46.09L156.96 46.09L156.96 50.16L141.21 50.16z" stroke="rgba(235, 68, 90, 0.1)"></path><path d="M166.75 174.03 a6.54 6.54 0 1 0 13.08 0 a6.54 6.54 0 1 0 -13.08 0z" fill="rgba(61, 194, 255, 0.1)"></path><path d="M116.02 294.52L127.2 294.52L127.2 302.57L116.02 302.57z" stroke="rgba(45, 211, 111, 0.1)"></path></g><defs><mask id="SvgjsMask1078"><rect width="180" height="300" fill="#ffffff"></rect></mask></defs></svg>