<svg xmlns="http://www.w3.org/2000/svg" version="1.1" xmlns:xlink="http://www.w3.org/1999/xlink" xmlns:svgjs="http://svgjs.dev/svgjs" width="180" height="300" preserveAspectRatio="none" viewBox="0 0 180 300"><g mask="url(&quot;#SvgjsMask1079&quot;)" fill="none"><path d="M142.73 63.13a15.53 15.53 0 1 0 26.1 16.83z" fill="rgba(45, 211, 111, 0.1)"></path><path d="M169.56 238.75L185.87 238.75L185.87 240.76L169.56 240.76z" fill="rgba(235, 68, 90, 0.1)"></path><path d="M121.24 249a15.26 15.26 0 1 0-18.18-24.51z" fill="rgba(235, 68, 90, 0.1)"></path><path d="M142.6 224.52a5.88 5.88 0 1 0-10.12 5.99z" stroke="rgba(45, 211, 111, 0.1)"></path><path d="M132.22 1.1 a4.09 4.09 0 1 0 8.18 0 a4.09 4.09 0 1 0 -8.18 0z" fill="rgba(45, 211, 111, 0.1)"></path><path d="M24.78 110.49L31.64 110.49L31.64 121.9L24.78 121.9z" fill="rgba(235, 68, 90, 0.1)"></path><path d="M155.23 171.65a5.4 5.4 0 1 0 3.23-10.3z" fill="rgba(61, 194, 255, 0.1)"></path><path d="M12.98 77.51a15.34 15.34 0 1 0 27.21 14.18z" fill="rgba(45, 211, 111, 0.1)"></path><path d="M119.77 169.69L133.5 169.69L133.5 176.16L119.77 176.16z" fill="rgba(191, 129, 28, 0.1)"></path><path d="M139.91 95.86a17.09 17.09 0 1 0 32.12-11.7z" fill="rgba(61, 194, 255, 0.1)"></path><path d="M131.03 189.84L146.76 189.84L146.76 207.63L131.03 207.63z" stroke="rgba(61, 194, 255, 0.1)"></path><path d="M139.54 112.31L154.11 112.31L154.11 126.88L139.54 126.88z" stroke="rgba(191, 129, 28, 0.1)"></path><path d="M136.46 180.47a5.71 5.71 0 1 0 11.4 0.5z" stroke="rgba(45, 211, 111, 0.1)"></path><path d="M158.5 83.34 a9.13 9.13 0 1 0 18.26 0 a9.13 9.13 0 1 0 -18.26 0z" fill="rgba(235, 68, 90, 0.1)"></path><path d="M158.51 27.8 a4.67 4.67 0 1 0 9.34 0 a4.67 4.67 0 1 0 -9.34 0z" stroke="rgba(235, 68, 90, 0.1)"></path><path d="M-7.06 188.39a10.59 10.59 0 1 0 19.76 7.64z" stroke="rgba(235, 68, 90, 0.1)"></path><path d="M87.72 140.73L96.05 140.73L96.05 149.06L87.72 149.06z" stroke="rgba(235, 68, 90, 0.1)"></path><path d="M39.37 221.98a0.98 0.98 0 1 0-1.82-0.72z" fill="rgba(61, 194, 255, 0.1)"></path><path d="M54.19 12.77 a11.93 11.93 0 1 0 23.86 0 a11.93 11.93 0 1 0 -23.86 0z" fill="rgba(45, 211, 111, 0.1)"></path><path d="M51.27 209.45L53.28 209.45L53.28 211.46L51.27 211.46z" stroke="rgba(61, 194, 255, 0.1)"></path><path d="M100.69 40.33a11.35 11.35 0 1 0-13.28 18.41z" stroke="rgba(61, 194, 255, 0.1)"></path></g><defs><mask id="SvgjsMask1079"><rect width="180" height="300" fill="#ffffff"></rect></mask></defs></svg>