<svg xmlns="http://www.w3.org/2000/svg" version="1.1" xmlns:xlink="http://www.w3.org/1999/xlink" xmlns:svgjs="http://svgjs.dev/svgjs" width="180" height="300" preserveAspectRatio="none" viewBox="0 0 180 300"><g mask="url(&quot;#SvgjsMask1081&quot;)" fill="none"><path d="M147.18 251.17L157.89 251.17L157.89 261.88L147.18 261.88z" fill="rgba(61, 194, 255, 0.1)"></path><path d="M132.27 253.02a5.49 5.49 0 1 0 10.4-3.53z" fill="rgba(45, 211, 111, 0.1)"></path><path d="M145.32 61.83L148.66 61.83L148.66 64.44L145.32 64.44z" fill="rgba(235, 68, 90, 0.1)"></path><path d="M71.43 181.07L76.66 181.07L76.66 186.3L71.43 186.3z" fill="rgba(191, 129, 28, 0.1)"></path><path d="M146.56 299.99a14.11 14.11 0 1 0 28.14-2.02z" stroke="rgba(235, 68, 90, 0.1)"></path><path d="M9.67 264.95a1.19 1.19 0 1 0-1.65-1.71z" fill="rgba(45, 211, 111, 0.1)"></path><path d="M66.48 209.86a15.09 15.09 0 1 0 26.27-14.86z" stroke="rgba(45, 211, 111, 0.1)"></path><path d="M37.32 199.14L50.05 199.14L50.05 211.87L37.32 211.87z" stroke="rgba(191, 129, 28, 0.1)"></path><path d="M140.02 205.91L144.64 205.91L144.64 210.53L140.02 210.53z" fill="rgba(235, 68, 90, 0.1)"></path><path d="M1.47 71.15 a17.77 17.77 0 1 0 35.54 0 a17.77 17.77 0 1 0 -35.54 0z" fill="rgba(235, 68, 90, 0.1)"></path><path d="M76.1 159.72L86.89 159.72L86.89 171.51L76.1 171.51z" fill="rgba(45, 211, 111, 0.1)"></path><path d="M98.16 178.33L112.44 178.33L112.44 181.27L98.16 181.27z" stroke="rgba(235, 68, 90, 0.1)"></path><path d="M109.87 299.02L117.12 299.02L117.12 306.09L109.87 306.09z" fill="rgba(191, 129, 28, 0.1)"></path><path d="M37.73 64.7L44.64 64.7L44.64 71.61L37.73 71.61z" fill="rgba(45, 211, 111, 0.1)"></path><path d="M152.37 263.86L165.7 263.86L165.7 272.49L152.37 272.49z" fill="rgba(235, 68, 90, 0.1)"></path><path d="M129.01 73.55L144.2 73.55L144.2 88.74L129.01 88.74z" stroke="rgba(191, 129, 28, 0.1)"></path><path d="M111.54 124.07L123.56 124.07L123.56 136.09L111.54 136.09z" fill="rgba(45, 211, 111, 0.1)"></path><path d="M7.95 252.45a8.24 8.24 0 1 0 11.26 12.04z" stroke="rgba(45, 211, 111, 0.1)"></path><path d="M55.81 82.03L61.48 82.03L61.48 91.36L55.81 91.36z" fill="rgba(45, 211, 111, 0.1)"></path><path d="M142.75 187.5a16.86 16.86 0 1 0-5.41 33.28z" stroke="rgba(45, 211, 111, 0.1)"></path><path d="M168.67 85.37L181.92 85.37L181.92 98.62L168.67 98.62z" stroke="rgba(45, 211, 111, 0.1)"></path></g><defs><mask id="SvgjsMask1081"><rect width="180" height="300" fill="#ffffff"></rect></mask></defs></svg>