<svg xmlns="http://www.w3.org/2000/svg" viewBox="0 0 30 30">
  <g fill="#2d2d2d" stroke="#010101" stroke-width="1.2" stroke-linecap="round" stroke-linejoin="round">
    <line x1="15" y1="5" x2="15" y2="0"/>
    <line x1="12.86" y1="1.76" x2="17.14" y2="1.76"/>
    <path d="M17.57 7.5C17.57 7.5 16.71 5.29 15 5.29 13.29 5.29 12.43 7.5 12.43 7.5 11.14 10.15 15 16.76 15 16.76 15 16.76 18.86 10.15 17.57 7.5Z"/>
    <path d="M5.57 27.35c4.71 3.09 13.29 3.09 18 0V21.18s7.71-3.97 5.14-9.26C25.29 6.18 17.14 8.82 15 15.44V18.53V15.44C12 8.82 3.86 6.18 1.29 11.91-1.29 17.21 5.57 20.74 5.57 20.74v6.61Z"/>
    <path d="M5.57 21.18c4.71-2.65 13.29-2.65 18 0M5.57 24.26c4.71-2.65 13.29-2.65 18 0M5.57 27.35c4.71-2.65 13.29-2.65 18 0" fill="none"/>
  </g>
</svg>
